<svg
  viewBox="0 0 16 16"
  fill="none"
  xmlns="http://www.w3.org/2000/svg"
  id="Hamburger-Menu--Streamline-Radix"
  height="16"
  width="16"
>
  <desc>Hamburger Menu Streamline Icon: https://streamlinehq.com</desc>
  <path
    fill-rule="evenodd"
    clip-rule="evenodd"
    d="M0.7630933333333334 2.5722666666666667C0.4299733333333333 2.5722666666666667 0.16 2.8423466666666664 0.16 3.17536S0.4299733333333333 3.778453333333333 0.7630933333333334 3.778453333333333H15.236906666666666C15.56992 3.778453333333333 15.84 3.50848 15.84 3.17536S15.56992 2.5722666666666667 15.236906666666666 2.5722666666666667H0.7630933333333334ZM0.16 8C0.16 7.666986666666666 0.4299733333333333 7.396906666666666 0.7630933333333334 7.396906666666666H15.236906666666666C15.56992 7.396906666666666 15.84 7.666986666666666 15.84 8S15.56992 8.603093333333334 15.236906666666666 8.603093333333334H0.7630933333333334C0.4299733333333333 8.603093333333334 0.16 8.33312 0.16 8ZM0.16 12.824639999999999C0.16 12.491626666666667 0.4299733333333333 12.221546666666667 0.7630933333333334 12.221546666666667H15.236906666666666C15.56992 12.221546666666667 15.84 12.491626666666667 15.84 12.824639999999999S15.56992 13.427733333333332 15.236906666666666 13.427733333333332H0.7630933333333334C0.4299733333333333 13.427733333333332 0.16 13.157653333333334 0.16 12.824639999999999Z"
    fill="currentColor"
    stroke-width="1"
  ></path>
</svg>