<svg width="36" height="36" viewBox="0 0 36 36" fill="none" xmlns="http://www.w3.org/2000/svg">
<g clip-path="url(#clip0_24_526)">
<path d="M17.9999 0C27.9413 0 35.9999 8.0586 35.9999 18V30.6C35.9999 32.0322 35.431 33.4057 34.4183 34.4184C33.4056 35.4311 32.0321 36 30.5999 36H18.8999V28.1034C18.8999 26.3016 19.0097 24.435 19.9547 22.9014C20.6313 21.8023 21.5363 20.8617 22.6084 20.1432C23.6805 19.4246 24.8946 18.9451 26.1683 18.7371L26.513 18.6813C26.6551 18.6327 26.7785 18.5409 26.8658 18.4188C26.9531 18.2966 27.0001 18.1502 27.0001 18C27.0001 17.8498 26.9531 17.7034 26.8658 17.5812C26.7785 17.4591 26.6551 17.3673 26.513 17.3187L26.1683 17.2629C24.3072 16.9589 22.5887 16.078 21.2553 14.7446C19.9219 13.4112 19.041 11.6926 18.737 9.8316L18.6812 9.4869C18.6326 9.34479 18.5408 9.22143 18.4186 9.13408C18.2965 9.04673 18.1501 8.99977 17.9999 8.99977C17.8497 8.99977 17.7033 9.04673 17.5811 9.13408C17.459 9.22143 17.3672 9.34479 17.3186 9.4869L17.2628 9.8316C17.0548 11.1053 16.5753 12.3195 15.8568 13.3916C15.1383 14.4637 14.1976 15.3687 13.0985 16.0452C11.5649 16.9902 9.69828 17.1 7.89648 17.1H0.0214844C0.492184 7.5771 8.36088 0 17.9999 0Z" fill="#6436F1"/>
<path d="M0 18.9H7.8966C9.6984 18.9 11.565 19.0098 13.0986 19.9548C14.2974 20.6935 15.3065 21.7026 16.0452 22.9014C16.9902 24.435 17.1 26.3016 17.1 28.1034V36H5.4C3.96783 36 2.59432 35.4311 1.58162 34.4184C0.568927 33.4057 0 32.0322 0 30.6L0 18.9ZM36 1.8C36 2.27739 35.8104 2.73523 35.4728 3.07279C35.1352 3.41036 34.6774 3.6 34.2 3.6C33.7226 3.6 33.2648 3.41036 32.9272 3.07279C32.5896 2.73523 32.4 2.27739 32.4 1.8C32.4 1.32261 32.5896 0.864773 32.9272 0.527208C33.2648 0.189642 33.7226 0 34.2 0C34.6774 0 35.1352 0.189642 35.4728 0.527208C35.8104 0.864773 36 1.32261 36 1.8Z" fill="#6436F1"/>
</g>
<defs>
<clipPath id="clip0_24_526">
<rect width="36" height="36" fill="white"/>
</clipPath>
</defs>
</svg>
